<mxfile host="app.diagrams.net" modified="2022-03-31T16:32:58.558Z" agent="5.0 (Windows NT 10.0; Win64; x64) AppleWebKit/537.36 (KHTML, like Gecko) Chrome/99.0.4844.74 Safari/537.36 Edg/99.0.1150.55" etag="9YXK8WSbLFSp4WhFEF50" version="17.4.0" type="github">
  <diagram id="rozvphipKLfmat5zvKBk" name="Page-1">
    <mxGraphModel dx="990" dy="619" grid="1" gridSize="10" guides="1" tooltips="1" connect="1" arrows="1" fold="1" page="1" pageScale="1" pageWidth="827" pageHeight="1169" background="none" math="0" shadow="0">
      <root>
        <mxCell id="0" />
        <mxCell id="1" parent="0" />
        <mxCell id="Ra0PhwroM2QZ81v65CtD-17" value="&lt;div&gt;&lt;span&gt;C5545&lt;/span&gt;&lt;/div&gt;&lt;div&gt;&lt;span&gt;&lt;br&gt;&lt;/span&gt;&lt;/div&gt;&lt;div&gt;&lt;span&gt;&lt;br&gt;&lt;/span&gt;&lt;/div&gt;&lt;div&gt;&lt;span&gt;&lt;br&gt;&lt;/span&gt;&lt;/div&gt;&lt;div&gt;&lt;span&gt;&lt;br&gt;&lt;/span&gt;&lt;/div&gt;&lt;div&gt;&lt;span&gt;&lt;br&gt;&lt;/span&gt;&lt;/div&gt;&lt;div&gt;&lt;span&gt;&lt;br&gt;&lt;/span&gt;&lt;/div&gt;&lt;div&gt;&lt;span&gt;&lt;br&gt;&lt;/span&gt;&lt;/div&gt;&lt;div&gt;&lt;span&gt;&lt;br&gt;&lt;/span&gt;&lt;/div&gt;" style="rounded=1;whiteSpace=wrap;html=1;align=center;" vertex="1" parent="1">
          <mxGeometry x="330" y="200" width="390" height="140" as="geometry" />
        </mxCell>
        <mxCell id="Ra0PhwroM2QZ81v65CtD-5" style="edgeStyle=orthogonalEdgeStyle;rounded=0;orthogonalLoop=1;jettySize=auto;html=1;exitX=0;exitY=0.75;exitDx=0;exitDy=0;entryX=1;entryY=0.5;entryDx=0;entryDy=0;" edge="1" parent="1" source="Ra0PhwroM2QZ81v65CtD-1" target="Ra0PhwroM2QZ81v65CtD-3">
          <mxGeometry relative="1" as="geometry" />
        </mxCell>
        <mxCell id="Ra0PhwroM2QZ81v65CtD-11" style="edgeStyle=orthogonalEdgeStyle;rounded=0;orthogonalLoop=1;jettySize=auto;html=1;exitX=1;exitY=0.25;exitDx=0;exitDy=0;entryX=0;entryY=0.5;entryDx=0;entryDy=0;" edge="1" parent="1" source="Ra0PhwroM2QZ81v65CtD-1" target="Ra0PhwroM2QZ81v65CtD-6">
          <mxGeometry relative="1" as="geometry" />
        </mxCell>
        <mxCell id="Ra0PhwroM2QZ81v65CtD-1" value="CODEC&lt;br&gt;(TLV320AIC3206)" style="rounded=1;whiteSpace=wrap;html=1;" vertex="1" parent="1">
          <mxGeometry x="200" y="240" width="120" height="60" as="geometry" />
        </mxCell>
        <mxCell id="Ra0PhwroM2QZ81v65CtD-4" style="edgeStyle=orthogonalEdgeStyle;rounded=0;orthogonalLoop=1;jettySize=auto;html=1;exitX=1;exitY=0.5;exitDx=0;exitDy=0;entryX=0;entryY=0.25;entryDx=0;entryDy=0;" edge="1" parent="1" source="Ra0PhwroM2QZ81v65CtD-2" target="Ra0PhwroM2QZ81v65CtD-1">
          <mxGeometry relative="1" as="geometry" />
        </mxCell>
        <mxCell id="Ra0PhwroM2QZ81v65CtD-2" value="MIC" style="ellipse;whiteSpace=wrap;html=1;" vertex="1" parent="1">
          <mxGeometry x="60" y="230" width="80" height="40" as="geometry" />
        </mxCell>
        <mxCell id="Ra0PhwroM2QZ81v65CtD-3" value="Headphone" style="ellipse;whiteSpace=wrap;html=1;" vertex="1" parent="1">
          <mxGeometry x="60" y="280" width="80" height="40" as="geometry" />
        </mxCell>
        <mxCell id="Ra0PhwroM2QZ81v65CtD-12" style="edgeStyle=orthogonalEdgeStyle;rounded=0;orthogonalLoop=1;jettySize=auto;html=1;exitX=1;exitY=0.5;exitDx=0;exitDy=0;entryX=0;entryY=0.5;entryDx=0;entryDy=0;" edge="1" parent="1" source="Ra0PhwroM2QZ81v65CtD-6" target="Ra0PhwroM2QZ81v65CtD-8">
          <mxGeometry relative="1" as="geometry" />
        </mxCell>
        <mxCell id="Ra0PhwroM2QZ81v65CtD-6" value="I2S Rev Reg" style="rounded=0;whiteSpace=wrap;html=1;" vertex="1" parent="1">
          <mxGeometry x="370" y="230" width="70" height="30" as="geometry" />
        </mxCell>
        <mxCell id="Ra0PhwroM2QZ81v65CtD-16" style="edgeStyle=orthogonalEdgeStyle;rounded=0;orthogonalLoop=1;jettySize=auto;html=1;exitX=0;exitY=0.5;exitDx=0;exitDy=0;entryX=1.007;entryY=0.65;entryDx=0;entryDy=0;entryPerimeter=0;" edge="1" parent="1" source="Ra0PhwroM2QZ81v65CtD-7" target="Ra0PhwroM2QZ81v65CtD-1">
          <mxGeometry relative="1" as="geometry" />
        </mxCell>
        <mxCell id="Ra0PhwroM2QZ81v65CtD-7" value="I2S Xmt Reg" style="rounded=0;whiteSpace=wrap;html=1;" vertex="1" parent="1">
          <mxGeometry x="370" y="280" width="70" height="30" as="geometry" />
        </mxCell>
        <mxCell id="Ra0PhwroM2QZ81v65CtD-13" style="edgeStyle=orthogonalEdgeStyle;rounded=0;orthogonalLoop=1;jettySize=auto;html=1;exitX=1;exitY=0.5;exitDx=0;exitDy=0;entryX=0;entryY=0.25;entryDx=0;entryDy=0;" edge="1" parent="1" source="Ra0PhwroM2QZ81v65CtD-8" target="Ra0PhwroM2QZ81v65CtD-10">
          <mxGeometry relative="1" as="geometry" />
        </mxCell>
        <mxCell id="Ra0PhwroM2QZ81v65CtD-8" value="PingPong Buffer" style="rounded=0;whiteSpace=wrap;html=1;" vertex="1" parent="1">
          <mxGeometry x="460" y="230" width="80" height="30" as="geometry" />
        </mxCell>
        <mxCell id="Ra0PhwroM2QZ81v65CtD-15" style="edgeStyle=orthogonalEdgeStyle;rounded=0;orthogonalLoop=1;jettySize=auto;html=1;exitX=0;exitY=0.5;exitDx=0;exitDy=0;entryX=1;entryY=0.5;entryDx=0;entryDy=0;" edge="1" parent="1" source="Ra0PhwroM2QZ81v65CtD-9" target="Ra0PhwroM2QZ81v65CtD-7">
          <mxGeometry relative="1" as="geometry" />
        </mxCell>
        <mxCell id="Ra0PhwroM2QZ81v65CtD-9" value="PingPong Buffer" style="rounded=0;whiteSpace=wrap;html=1;" vertex="1" parent="1">
          <mxGeometry x="460" y="280" width="80" height="30" as="geometry" />
        </mxCell>
        <mxCell id="Ra0PhwroM2QZ81v65CtD-19" style="edgeStyle=orthogonalEdgeStyle;rounded=0;orthogonalLoop=1;jettySize=auto;html=1;exitX=0;exitY=0.75;exitDx=0;exitDy=0;entryX=1;entryY=0.5;entryDx=0;entryDy=0;" edge="1" parent="1" source="Ra0PhwroM2QZ81v65CtD-10" target="Ra0PhwroM2QZ81v65CtD-9">
          <mxGeometry relative="1" as="geometry" />
        </mxCell>
        <mxCell id="Ra0PhwroM2QZ81v65CtD-10" value="Resampling Algorithm" style="shape=process;whiteSpace=wrap;html=1;backgroundOutline=1;" vertex="1" parent="1">
          <mxGeometry x="580" y="240" width="120" height="60" as="geometry" />
        </mxCell>
        <mxCell id="Ra0PhwroM2QZ81v65CtD-21" style="edgeStyle=orthogonalEdgeStyle;rounded=0;orthogonalLoop=1;jettySize=auto;html=1;exitX=0.5;exitY=1;exitDx=0;exitDy=0;entryX=0.5;entryY=0;entryDx=0;entryDy=0;" edge="1" parent="1" source="Ra0PhwroM2QZ81v65CtD-20" target="Ra0PhwroM2QZ81v65CtD-10">
          <mxGeometry relative="1" as="geometry" />
        </mxCell>
        <mxCell id="Ra0PhwroM2QZ81v65CtD-20" value="Buttons" style="ellipse;whiteSpace=wrap;html=1;" vertex="1" parent="1">
          <mxGeometry x="600" y="130" width="80" height="40" as="geometry" />
        </mxCell>
      </root>
    </mxGraphModel>
  </diagram>
</mxfile>
